HIERARCHY
ROOT joint_Root
{
	OFFSET 0.0 0.0 0.0
	CHANNELS 6 Xposition Yposition Zposition Zrotation Xrotation Yrotation 
	JOINT Hips
	{
		OFFSET 4.5925 91.4895 -427.239
		CHANNELS 6 Xposition Yposition Zposition Zrotation Xrotation Yrotation 
		JOINT Spine
		{
			OFFSET 15.7357 0.0 0.0
			CHANNELS 6 Xposition Yposition Zposition Zrotation Xrotation Yrotation 
			JOINT Chest
			{
				OFFSET 8.98455 -0.406207 0.0
				CHANNELS 6 Xposition Yposition Zposition Zrotation Xrotation Yrotation 
				JOINT Neck
				{
					OFFSET 16.3773 0.0 0.0
					CHANNELS 6 Xposition Yposition Zposition Zrotation Xrotation Yrotation 
					JOINT Head
					{
						OFFSET 6.45672 0.0 0.0
						CHANNELS 6 Xposition Yposition Zposition Zrotation Xrotation Yrotation 
						End Site
						{
							OFFSET 0.0 0.0 0.0
						}
					}
				}
				JOINT Shoulder_L
				{
					OFFSET 12.9942 -0.242716 4.98039
					CHANNELS 6 Xposition Yposition Zposition Zrotation Xrotation Yrotation 
					JOINT UpperArm_L
					{
						OFFSET 5.34809 0.0 0.0
						CHANNELS 6 Xposition Yposition Zposition Zrotation Xrotation Yrotation 
						JOINT LowerArm_L
						{
							OFFSET 24.3286 1.87007e-05 0.0
							CHANNELS 6 Xposition Yposition Zposition Zrotation Xrotation Yrotation 
							JOINT Hand_L
							{
								OFFSET 22.2916 0.0 0.0
								CHANNELS 6 Xposition Yposition Zposition Zrotation Xrotation Yrotation 
								End Site
								{
									OFFSET 0.0 0.0 0.0
								}
							}
						}
					}
				}
				JOINT Shoulder_R
				{
					OFFSET 12.9945 -0.242716 -4.98039
					CHANNELS 6 Xposition Yposition Zposition Zrotation Xrotation Yrotation 
					JOINT UpperArm_R
					{
						OFFSET -5.34813 0.0 0.0
						CHANNELS 6 Xposition Yposition Zposition Zrotation Xrotation Yrotation 
						JOINT LowerArm_R
						{
							OFFSET -24.3289 0.000322201 0.0
							CHANNELS 6 Xposition Yposition Zposition Zrotation Xrotation Yrotation 
							JOINT Hand_R
							{
								OFFSET -22.2915 -0.000108084 0.0
								CHANNELS 6 Xposition Yposition Zposition Zrotation Xrotation Yrotation 
								End Site
								{
									OFFSET 0.0 0.0 0.0
								}
							}
						}
					}
				}
			}
		}
		JOINT UpperLeg_L
		{
			OFFSET -2.19248 -6.46944 0.0
			CHANNELS 6 Xposition Yposition Zposition Zrotation Xrotation Yrotation 
			JOINT LowerLeg_L
			{
				OFFSET 39.0811 0.0 -1.23785e-05
				CHANNELS 6 Xposition Yposition Zposition Zrotation Xrotation Yrotation 
				JOINT Foot_L
				{
					OFFSET 40.9854 0.0 -1.26872e-05
					CHANNELS 6 Xposition Yposition Zposition Zrotation Xrotation Yrotation 
					JOINT Toes_L
					{
						OFFSET 11.7543 0.0 0.0
						CHANNELS 6 Xposition Yposition Zposition Zrotation Xrotation Yrotation 
						End Site
						{
							OFFSET 0.0 0.0 0.0
						}
					}
				}
			}
		}
		JOINT UpperLeg_R
		{
			OFFSET -2.19251 6.46944 0.0
			CHANNELS 6 Xposition Yposition Zposition Zrotation Xrotation Yrotation 
			JOINT LowerLeg_R
			{
				OFFSET -39.0811 -0.00228153 -0.0401928
				CHANNELS 6 Xposition Yposition Zposition Zrotation Xrotation Yrotation 
				JOINT Foot_R
				{
					OFFSET -40.9854 0.0 0.0
					CHANNELS 6 Xposition Yposition Zposition Zrotation Xrotation Yrotation 
					JOINT Toes_R
					{
						OFFSET -11.7543 0.0 0.0
						CHANNELS 6 Xposition Yposition Zposition Zrotation Xrotation Yrotation 
						End Site
						{
							OFFSET 0.0 0.0 0.0
						}
					}
				}
			}
		}
	}
}
MOTION
Frames:	4
Frame Time:	0.0333333
0.000000 0.000000 0.000000 0.000000 0.000000 -0.000000 77.536300 89.540900 185.351000 -86.283100 56.782900 -178.455000 15.735700 0.000005 -0.000001 89.473500 80.729400 -89.943200 8.984550 -0.406207 -0.000000 10.773900 -0.181456 -0.921805 16.377300 -0.000001 -0.000001 4.020420 6.301550 -0.927977 6.456720 -0.000001 -0.000000 -0.378750 11.306900 -5.478510 12.994200 -0.242716 4.980390 -90.595600 2.053300 -73.821200 5.348090 -0.000007 -0.000001 -60.294900 32.425100 -25.488300 24.328600 0.000019 0.000005 11.871400 11.211300 -47.233800 22.291600 -0.000001 0.000005 15.125600 5.268380 0.942373 12.994500 -0.242716 -4.980390 88.778600 9.123410 -82.342000 -5.348130 -0.000001 -0.000004 -61.243400 31.785200 -12.761300 -24.328900 0.000322 -0.000009 0.157015 0.443739 -19.609300 -22.291500 -0.000108 -0.000004 14.711600 5.372780 -2.072870 -2.192480 -6.469440 -0.000000 177.555000 0.804631 -8.260320 39.081100 -0.000007 -0.000012 -0.253428 0.340195 36.684800 40.985400 -0.000006 -0.000013 6.426830 1.194080 -74.016000 11.754300 -0.000000 0.000003 -0.000160 -0.001534 -16.635800 -2.192510 6.469440 -0.000001 177.956000 15.112900 157.824000 -39.081100 -0.002282 -0.040193 0.000919 0.004432 28.296300 -40.985400 0.000008 0.000006 -1.955360 9.096760 -59.079300 -11.754300 -0.000006 -0.000006 -0.014948 -0.137487 -22.182500
0.000000 0.000000 0.000000 0.000000 0.000000 -0.000000 79.526300 89.374900 184.832000 -86.407700 55.557600 -178.521000 15.735700 0.000005 -0.000001 91.015600 80.708900 -91.327900 8.984550 -0.406207 -0.000000 10.814400 0.318670 -0.654446 16.377300 -0.000001 -0.000001 4.378690 6.134350 -0.968411 6.456720 -0.000001 -0.000000 -0.481685 11.023600 -5.760030 12.994200 -0.242716 4.980390 -90.754200 2.582440 -73.713400 5.348090 -0.000007 -0.000001 -59.430700 32.782800 -26.302700 24.328600 0.000019 0.000005 11.479400 10.910300 -47.015000 22.291600 -0.000001 0.000005 15.596500 5.269930 0.899849 12.994500 -0.242716 -4.980390 88.797300 9.224440 -82.538600 -5.348130 -0.000001 -0.000004 -60.771300 31.725300 -13.508100 -24.328900 0.000322 -0.000009 0.208894 0.602205 -19.220400 -22.291500 -0.000108 -0.000004 14.709300 5.373830 -2.105710 -2.192480 -6.469440 -0.000000 178.113000 1.136370 -7.032640 39.081100 -0.000007 -0.000012 -0.276618 0.371037 36.706000 40.985400 -0.000006 -0.000013 6.318200 2.048370 -75.509200 11.754300 -0.000000 0.000003 -0.000175 -0.001658 -16.640300 -2.192510 6.469440 -0.000001 179.188000 17.186600 156.501000 -39.081100 -0.002282 -0.040193 0.049929 -0.093251 26.562300 -40.985400 0.000008 0.000006 -1.416670 14.782500 -58.569800 -11.754300 -0.000006 -0.000006 -0.014937 -0.137420 -22.179700
0.000000 0.000000 0.000000 0.000000 0.000000 -0.000000 81.824000 89.136100 184.251000 -86.515000 54.433200 -178.597000 15.735700 0.000005 -0.000001 92.475000 80.748100 -92.628300 8.984550 -0.406207 -0.000000 10.722400 0.789414 -0.380418 16.377300 -0.000001 -0.000001 4.955580 6.059720 -0.962054 6.456720 -0.000001 -0.000000 -0.310689 10.759900 -5.904130 12.994200 -0.242716 4.980390 -90.832700 2.815370 -73.516200 5.348090 -0.000007 -0.000001 -59.704600 32.751100 -26.245100 24.328600 0.000019 0.000005 11.185700 11.201700 -45.509000 22.291600 -0.000001 0.000005 15.664800 5.273350 0.807322 12.994500 -0.242716 -4.980390 88.810300 9.303980 -82.680500 -5.348130 -0.000001 -0.000004 -60.094200 32.126500 -14.676200 -24.328900 0.000322 -0.000009 0.216364 0.638313 -18.809800 -22.291500 -0.000108 -0.000004 14.756200 5.369190 -1.962020 -2.192480 -6.469440 -0.000000 178.721000 1.720870 -5.535030 39.081100 -0.000007 -0.000012 -0.299228 0.402385 36.636500 40.985400 -0.000006 -0.000013 6.057750 2.620360 -77.164100 11.754300 -0.000000 0.000003 -0.000193 -0.001797 -16.645400 -2.192510 6.469440 -0.000001 179.807000 17.405300 155.555000 -39.081100 -0.002282 -0.040193 0.050210 -0.088763 27.852500 -40.985400 0.000008 0.000006 -0.531811 14.239200 -56.718600 -11.754300 -0.000006 -0.000006 -0.015769 -0.142609 -22.392800
0.000000 0.000000 0.000000 0.000000 0.000000 -0.000000 84.387900 88.833900 183.614000 -86.189500 53.026500 -178.967000 15.735700 0.000005 -0.000001 93.184400 80.833000 -93.080700 8.984550 -0.406207 -0.000000 10.539900 1.013910 0.113682 16.377300 -0.000001 -0.000001 5.484610 6.028490 -0.907613 6.456720 -0.000001 -0.000000 0.126519 10.534600 -5.793830 12.994200 -0.242716 4.980390 -90.845800 2.835930 -73.385700 5.348090 -0.000007 -0.000001 -60.755000 32.398700 -25.150200 24.328600 0.000019 0.000005 10.824500 11.733700 -43.234600 22.291600 -0.000001 0.000005 15.494300 5.267360 0.969171 12.994500 -0.242716 -4.980390 88.818000 9.268540 -82.700100 -5.348130 -0.000001 -0.000004 -59.544600 32.600900 -16.080800 -24.328900 0.000322 -0.000009 0.348548 1.047730 -18.454500 -22.291500 -0.000108 -0.000004 15.001300 5.365590 -1.850750 -2.192480 -6.469440 -0.000000 179.801000 2.228080 -3.812700 39.081100 -0.000007 -0.000012 -0.333530 0.450564 36.511400 40.985400 -0.000006 -0.000013 5.829810 3.543300 -78.997800 11.754300 -0.000000 0.000003 -0.000162 -0.001548 -16.636300 -2.192510 6.469440 -0.000001 179.941000 16.246900 155.357000 -39.081100 -0.002282 -0.040193 0.014743 -0.019456 30.460400 -40.985400 0.000008 0.000006 -0.046236 11.885800 -53.851200 -11.754300 -0.000006 -0.000006 -0.016599 -0.147664 -22.600400
